<?xml version="1.0" encoding="UTF-8" standalone="no"?><svg xmlns="http://www.w3.org/2000/svg" xmlns:xlink="http://www.w3.org/1999/xlink" contentScriptType="application/ecmascript" contentStyleType="text/css" height="405px" preserveAspectRatio="none" style="width:957px;height:405px;" version="1.1" viewBox="0 0 957 405" width="957px" zoomAndPan="magnify"><defs><filter height="300%" id="fzo02vg5piz0u" width="300%" x="-1" y="-1"><feGaussianBlur result="blurOut" stdDeviation="2.0"/><feColorMatrix in="blurOut" result="blurOut2" type="matrix" values="0 0 0 0 0 0 0 0 0 0 0 0 0 0 0 0 0 0 .4 0"/><feOffset dx="4.0" dy="4.0" in="blurOut2" result="blurOut3"/><feBlend in="SourceGraphic" in2="blurOut3" mode="normal"/></filter></defs><g><rect fill="#F8F8F8" filter="url(#fzo02vg5piz0u)" height="36.2969" rx="12.5" ry="12.5" style="stroke: #383838; stroke-width: 1.5;" width="100" x="423" y="188.8906"/><text fill="#000000" font-family="sans-serif" font-size="14" lengthAdjust="spacingAndGlyphs" textLength="80" x="433" y="211.8857">Car analogy</text><rect fill="#F8F8F8" filter="url(#fzo02vg5piz0u)" height="36.2969" rx="12.5" ry="12.5" style="stroke: #383838; stroke-width: 1.5;" width="123" x="573" y="48.1484"/><text fill="#000000" font-family="sans-serif" font-size="14" lengthAdjust="spacingAndGlyphs" textLength="103" x="583" y="71.1436">Steering wheel</text><rect fill="#F8F8F8" filter="url(#fzo02vg5piz0u)" height="36.2969" rx="12.5" ry="12.5" style="stroke: #383838; stroke-width: 1.5;" width="102" x="746" y="20"/><text fill="#000000" font-family="sans-serif" font-size="14" lengthAdjust="spacingAndGlyphs" textLength="82" x="756" y="42.9951">Cluster SSO</text><path d="M696,66.2969 L706,66.2969 C721,66.2969 721,38.1484 736,38.1484 L746,38.1484 " fill="none" style="stroke: #383838; stroke-width: 1.0;"/><rect fill="#F8F8F8" filter="url(#fzo02vg5piz0u)" height="36.2969" rx="12.5" ry="12.5" style="stroke: #383838; stroke-width: 1.5;" width="200" x="746" y="76.2969"/><text fill="#000000" font-family="sans-serif" font-size="14" lengthAdjust="spacingAndGlyphs" textLength="180" x="756" y="99.292">Customer Application SSO</text><path d="M696,66.2969 L706,66.2969 C721,66.2969 721,94.4453 736,94.4453 L746,94.4453 " fill="none" style="stroke: #383838; stroke-width: 1.0;"/><path d="M523,207.0391 L533,207.0391 C548,207.0391 548,66.2969 563,66.2969 L573,66.2969 " fill="none" style="stroke: #383838; stroke-width: 1.0;"/><rect fill="#F8F8F8" filter="url(#fzo02vg5piz0u)" height="36.2969" rx="12.5" ry="12.5" style="stroke: #383838; stroke-width: 1.5;" width="76" x="573" y="245.1875"/><text fill="#000000" font-family="sans-serif" font-size="14" lengthAdjust="spacingAndGlyphs" textLength="56" x="583" y="268.1826">Engines</text><rect fill="#F8F8F8" filter="url(#fzo02vg5piz0u)" height="36.2969" rx="12.5" ry="12.5" style="stroke: #383838; stroke-width: 1.5;" width="54" x="699" y="132.5938"/><text fill="#000000" font-family="sans-serif" font-size="14" lengthAdjust="spacingAndGlyphs" textLength="34" x="709" y="155.5889">Fuse</text><path d="M649,263.3359 L659,263.3359 C674,263.3359 674,150.7422 689,150.7422 L699,150.7422 " fill="none" style="stroke: #383838; stroke-width: 1.0;"/><rect fill="#F8F8F8" filter="url(#fzo02vg5piz0u)" height="36.2969" rx="12.5" ry="12.5" style="stroke: #383838; stroke-width: 1.5;" width="52" x="699" y="188.8906"/><text fill="#000000" font-family="sans-serif" font-size="14" lengthAdjust="spacingAndGlyphs" textLength="32" x="709" y="211.8857">AMQ</text><path d="M649,263.3359 L659,263.3359 C674,263.3359 674,207.0391 689,207.0391 L699,207.0391 " fill="none" style="stroke: #383838; stroke-width: 1.0;"/><rect fill="#F8F8F8" filter="url(#fzo02vg5piz0u)" height="36.2969" rx="12.5" ry="12.5" style="stroke: #383838; stroke-width: 1.5;" width="65" x="699" y="245.1875"/><text fill="#000000" font-family="sans-serif" font-size="14" lengthAdjust="spacingAndGlyphs" textLength="45" x="709" y="268.1826">3scale</text><path d="M649,263.3359 L659,263.3359 C674,263.3359 674,263.3359 689,263.3359 L699,263.3359 " fill="none" style="stroke: #383838; stroke-width: 1.0;"/><rect fill="#F8F8F8" filter="url(#fzo02vg5piz0u)" height="36.2969" rx="12.5" ry="12.5" style="stroke: #383838; stroke-width: 1.5;" width="53" x="699" y="301.4844"/><text fill="#000000" font-family="sans-serif" font-size="14" lengthAdjust="spacingAndGlyphs" textLength="33" x="709" y="324.4795">CRW</text><path d="M649,263.3359 L659,263.3359 C674,263.3359 674,319.6328 689,319.6328 L699,319.6328 " fill="none" style="stroke: #383838; stroke-width: 1.0;"/><rect fill="#F8F8F8" filter="url(#fzo02vg5piz0u)" height="36.2969" rx="12.5" ry="12.5" style="stroke: #383838; stroke-width: 1.5;" width="84" x="699" y="357.7813"/><text fill="#000000" font-family="sans-serif" font-size="14" lengthAdjust="spacingAndGlyphs" textLength="64" x="709" y="380.7764">Launcher</text><path d="M649,263.3359 L659,263.3359 C674,263.3359 674,375.9297 689,375.9297 L699,375.9297 " fill="none" style="stroke: #383838; stroke-width: 1.0;"/><path d="M523,207.0391 L533,207.0391 C548,207.0391 548,263.3359 563,263.3359 L573,263.3359 " fill="none" style="stroke: #383838; stroke-width: 1.0;"/><rect fill="#F8F8F8" filter="url(#fzo02vg5piz0u)" height="36.2969" rx="12.5" ry="12.5" style="stroke: #383838; stroke-width: 1.5;" width="61" x="312" y="104.4453"/><text fill="#000000" font-family="sans-serif" font-size="14" lengthAdjust="spacingAndGlyphs" textLength="41" x="322" y="127.4404">Gears</text><rect fill="#F8F8F8" filter="url(#fzo02vg5piz0u)" height="36.2969" rx="12.5" ry="12.5" style="stroke: #383838; stroke-width: 1.5;" width="89" x="173" y="76.2969"/><text fill="#000000" font-family="sans-serif" font-size="14" lengthAdjust="spacingAndGlyphs" textLength="69" x="183" y="99.292">Automatic</text><rect fill="#F8F8F8" filter="url(#fzo02vg5piz0u)" height="36.2969" rx="12.5" ry="12.5" style="stroke: #383838; stroke-width: 1.5;" width="82" x="41" y="76.2969"/><text fill="#000000" font-family="sans-serif" font-size="14" lengthAdjust="spacingAndGlyphs" textLength="62" x="51" y="99.292">Pipelines</text><path d="M173,94.4453 L163,94.4453 C148,94.4453 148,94.4453 133,94.4453 L123,94.4453 " fill="none" style="stroke: #383838; stroke-width: 1.0;"/><path d="M312,122.5938 L302,122.5938 C287,122.5938 287,94.4453 272,94.4453 L262,94.4453 " fill="none" style="stroke: #383838; stroke-width: 1.0;"/><rect fill="#F8F8F8" filter="url(#fzo02vg5piz0u)" height="36.2969" rx="12.5" ry="12.5" style="stroke: #383838; stroke-width: 1.5;" width="69" x="193" y="132.5938"/><text fill="#000000" font-family="sans-serif" font-size="14" lengthAdjust="spacingAndGlyphs" textLength="49" x="203" y="155.5889">Manual</text><rect fill="#F8F8F8" filter="url(#fzo02vg5piz0u)" height="36.2969" rx="12.5" ry="12.5" style="stroke: #383838; stroke-width: 1.5;" width="69" x="74" y="132.5938"/><text fill="#000000" font-family="sans-serif" font-size="14" lengthAdjust="spacingAndGlyphs" textLength="49" x="84" y="155.5889">Jenkins</text><path d="M193,150.7422 L183,150.7422 C168,150.7422 168,150.7422 153,150.7422 L143,150.7422 " fill="none" style="stroke: #383838; stroke-width: 1.0;"/><path d="M312,122.5938 L302,122.5938 C287,122.5938 287,150.7422 272,150.7422 L262,150.7422 " fill="none" style="stroke: #383838; stroke-width: 1.0;"/><path d="M423,207.0391 L413,207.0391 C398,207.0391 398,122.5938 383,122.5938 L373,122.5938 " fill="none" style="stroke: #383838; stroke-width: 1.0;"/><rect fill="#F8F8F8" filter="url(#fzo02vg5piz0u)" height="36.2969" rx="12.5" ry="12.5" style="stroke: #383838; stroke-width: 1.5;" width="71" x="302" y="245.1875"/><text fill="#000000" font-family="sans-serif" font-size="14" lengthAdjust="spacingAndGlyphs" textLength="51" x="312" y="268.1826">Wheels</text><rect fill="#F8F8F8" filter="url(#fzo02vg5piz0u)" height="36.2969" rx="12.5" ry="12.5" style="stroke: #383838; stroke-width: 1.5;" width="77" x="175" y="245.1875"/><text fill="#000000" font-family="sans-serif" font-size="14" lengthAdjust="spacingAndGlyphs" textLength="57" x="185" y="268.1826">Clusters</text><rect fill="#F8F8F8" filter="url(#fzo02vg5piz0u)" height="36.2969" rx="12.5" ry="12.5" style="stroke: #383838; stroke-width: 1.5;" width="115" x="10" y="188.8906"/><text fill="#000000" font-family="sans-serif" font-size="14" lengthAdjust="spacingAndGlyphs" textLength="95" x="20" y="211.8857">Single Cluster</text><path d="M175,263.3359 L165,263.3359 C150,263.3359 150,207.0391 135,207.0391 L125,207.0391 " fill="none" style="stroke: #383838; stroke-width: 1.0;"/><rect fill="#F8F8F8" filter="url(#fzo02vg5piz0u)" height="36.2969" rx="12.5" ry="12.5" style="stroke: #383838; stroke-width: 1.5;" width="86" x="39" y="245.1875"/><text fill="#000000" font-family="sans-serif" font-size="14" lengthAdjust="spacingAndGlyphs" textLength="66" x="49" y="268.1826">Bi Cluster</text><path d="M175,263.3359 L165,263.3359 C150,263.3359 150,263.3359 135,263.3359 L125,263.3359 " fill="none" style="stroke: #383838; stroke-width: 1.0;"/><rect fill="#F8F8F8" filter="url(#fzo02vg5piz0u)" height="36.2969" rx="12.5" ry="12.5" style="stroke: #383838; stroke-width: 1.5;" width="105" x="20" y="301.4844"/><text fill="#000000" font-family="sans-serif" font-size="14" lengthAdjust="spacingAndGlyphs" textLength="85" x="30" y="324.4795">Multi Cluster</text><path d="M175,263.3359 L165,263.3359 C150,263.3359 150,319.6328 135,319.6328 L125,319.6328 " fill="none" style="stroke: #383838; stroke-width: 1.0;"/><path d="M302,263.3359 L292,263.3359 C277,263.3359 277,263.3359 262,263.3359 L252,263.3359 " fill="none" style="stroke: #383838; stroke-width: 1.0;"/><path d="M423,207.0391 L413,207.0391 C398,207.0391 398,263.3359 383,263.3359 L373,263.3359 " fill="none" style="stroke: #383838; stroke-width: 1.0;"/><!--MD5=[e3a1c4e2cc18f282dc915206b9d4770c]
@startmindmap
skinparam monochrome true


* Car analogy
** Steering wheel
*** Cluster SSO
*** Customer Application SSO
** Engines
*** Fuse
*** AMQ
*** 3scale
*** CRW
*** Launcher

left side

** Gears
*** Automatic
**** Pipelines
*** Manual
**** Jenkins
** Wheels
*** Clusters
**** Single Cluster
**** Bi Cluster
**** Multi Cluster

@endmindmap

PlantUML version 1.2020.00(Sat Jan 11 12:30:53 UTC 2020)
(GPL source distribution)
Java Runtime: Java(TM) SE Runtime Environment
JVM: Java HotSpot(TM) 64-Bit Server VM
Java Version: 1.7.0_25-b15
Operating System: Linux
Default Encoding: UTF-8
Language: en
Country: US
--></g></svg>